<svg width="24" height="43" viewBox="0 0 24 43" fill="none" xmlns="http://www.w3.org/2000/svg">
<g opacity="0.21">
<path d="M19.9407 33.66C14.5607 33.66 9.32068 33.66 4.08068 33.66C6.05068 31.69 8.00068 29.74 9.92068 27.82C9.19068 27.08 8.55068 26.43 7.89068 25.76C7.13068 26.53 6.32068 27.34 5.51068 28.14C3.78068 29.87 2.05068 31.6 0.32068 33.32C0.09068 33.55 -0.00932005 33.78 0.000679951 34.1C0.02068 34.87 0.000679951 35.63 0.000679951 36.44C7.96068 36.44 15.9007 36.44 23.8907 36.44C23.8907 35.54 23.9107 34.65 23.8807 33.76C23.8807 33.61 23.6907 33.45 23.5607 33.32C17.2007 26.95 10.8307 20.59 4.47068 14.23C4.31068 14.07 4.10068 13.95 3.93068 13.82C6.68068 11.08 9.33068 8.44 11.9607 5.82C13.2207 7.09 14.5307 8.41 15.8807 9.76C15.2707 10.35 14.6007 10.98 13.9407 11.63C15.9907 13.67 17.9607 15.63 19.9007 17.57C19.1907 18.27 18.5207 18.92 17.8607 19.57C15.9607 17.67 13.9907 15.7 12.0607 13.77C11.3707 14.46 10.7207 15.1 10.1007 15.72C12.6707 18.29 15.3107 20.93 17.9107 23.53C19.8407 21.6 21.8007 19.63 23.7807 17.65C21.8707 15.74 19.8807 13.77 17.8707 11.76C18.6007 11.06 19.2607 10.42 20.0507 9.65C19.8207 9.5 19.6407 9.44 19.5207 9.32C17.7607 7.57 16.0207 5.81 14.2607 4.07C14.0007 3.81 13.9107 3.56 13.9107 3.21C13.9307 2.11 13.9107 1.02 13.9107 0C9.35068 4.58 4.75068 9.18 0.11068 13.83C6.61068 20.33 13.2407 26.95 19.9407 33.65V33.66Z" fill="white"/>
<path d="M23.8705 42.08C23.8705 41.16 23.8705 40.27 23.8705 39.35C15.9205 39.35 8.00053 39.35 0.0405273 39.35C0.0405273 40.24 0.0405273 41.14 0.0405273 42.08C7.96053 42.08 15.9005 42.08 23.8705 42.08Z" fill="white"/>
</g>
</svg>
