<?xml version="1.0" encoding="UTF-8"?>
<svg id="Layer_1" xmlns="http://www.w3.org/2000/svg" version="1.1" viewBox="0 0 308.91 42.08">
  <!-- Generator: Adobe Illustrator 29.6.1, SVG Export Plug-In . SVG Version: 2.1.1 Build 9)  -->
  <defs>
    <style>
      .st0 {
        fill: #fff;
      }
    </style>
  </defs>
  <g>
    <path class="st0" d="M41.65,14.21c0,6.84,13.88,4.27,13.88,13.75,0,4.91-4.42,8.12-9.61,8.12-3.49,0-6.55-1.06-8.26-2.46l-.27-6.65h.39c.93,4.83,4.03,8.54,8.26,8.54,3.45,0,5.66-2.15,5.66-5.21,0-8.2-13.76-4.95-13.76-13.97,0-4.31,3.68-7.52,8.91-7.52,2.79,0,5.19.87,7.29,2.19l.04,5.67h-.39c-.81-4.42-3.49-7.33-7.01-7.33-3.33,0-5.12,2.23-5.12,4.87Z"/>
    <path class="st0" d="M72.39,22.02c0-2.76-1.05-3.97-3.41-3.97-1.67,0-3.41.64-4.73,1.59v13.9c0,1.47.74,1.62,2.67,1.74v.42h-9.69v-.42c1.94-.11,2.67-.26,2.67-1.74V9.67l-2.56-1.44v-.15l6.74-1.96h.15v13.22c1.51-1.74,4.07-3.81,7.13-3.81,3.57,0,5.35,2.12,5.35,6.08v11.93c0,1.47.74,1.62,2.67,1.74v.42h-9.69v-.42c1.94-.11,2.67-.26,2.67-1.74v-11.52Z"/>
    <path class="st0" d="M99.6,25.31c0,6.5-4.22,10.76-9.61,10.76s-9.42-4.19-9.42-9.82c0-6.46,4.26-10.73,9.61-10.73,5.62,0,9.42,4.19,9.42,9.78ZM95.03,26.48c0-5.44-1.59-10.42-5.04-10.42-3.1,0-4.81,3.55-4.81,9.06s1.59,10.42,5,10.42c3.14,0,4.84-3.59,4.84-9.06Z"/>
    <path class="st0" d="M110.88,36.07c-5.46,0-8.95-4.23-8.95-9.74,0-6.12,4.11-10.8,9.22-10.8,4.84,0,7.44,3.32,7.44,7.59v.3h-12.79v.6c0,5.67,2.79,9.03,6.9,9.03,2.6,0,4.65-1.13,6.01-3.17l.15.08c-.89,3.51-3.88,6.12-7.98,6.12ZM105.84,22.78h8.76c0-3.7-1.12-6.65-3.95-6.65s-4.46,3.02-4.81,6.65Z"/>
    <path class="st0" d="M153.71,35.28v.42h-9.69v-.42c1.94-.11,2.67-.26,2.67-1.74v-11.52c0-2.76-1.01-3.97-3.22-3.97-1.55,0-3.22.64-4.42,1.59v13.9c0,1.47.7,1.62,2.64,1.74v.42h-9.61v-.42c1.94-.11,2.64-.26,2.64-1.74v-11.52c0-2.76-.97-3.97-3.22-3.97-1.55,0-3.18.64-4.42,1.59v13.9c0,1.47.74,1.62,2.67,1.74v.42h-9.69v-.42c1.94-.11,2.67-.26,2.67-1.74v-14.46l-2.56-1.44v-.15l6.9-1.96h.16l-.16,3.81c1.43-1.74,3.88-3.81,6.82-3.81,2.75,0,4.57,1.32,5.12,3.85,1.43-1.74,3.92-3.85,6.82-3.85,3.49,0,5.16,2.12,5.16,6.08v11.93c0,1.47.77,1.62,2.71,1.74Z"/>
    <path class="st0" d="M170.42,31.92c0,1.4.66,2,1.78,2,.54,0,1.05-.11,1.47-.34l.08.15c-.97,1.44-2.44,2.27-4.07,2.27-1.98,0-3.29-1.28-3.57-3.25-1.28,1.55-3.41,3.25-6.08,3.25-2.87,0-5.08-1.89-5.08-4.68s2.4-4.46,5.62-5.55l5.5-1.89v-3.32c0-2.57-.89-4.46-3.22-4.46-2.01,0-2.95,1.59-2.95,3.74,0,.75.08,1.59.35,2.3l-2.6.34c-.89-.23-1.63-1.13-1.63-2.27,0-2.87,3.49-4.68,7.4-4.68,4.57,0,6.98,1.81,6.98,5.97v10.42ZM166.08,32.41v-8.04l-3.99,1.62c-1.86.76-3.02,1.93-3.02,4.08s1.36,3.74,3.49,3.74c1.2,0,2.44-.34,3.53-1.4Z"/>
    <path class="st0" d="M181.08,33.54c0,1.47.74,1.62,2.67,1.74v.42h-9.69v-.42c1.94-.11,2.67-.26,2.67-1.74V9.67l-2.56-1.44v-.15l6.74-1.96h.16v27.42ZM188.05,19.04c.58-.6,1.08-1.06,1.08-1.62,0-.76-1.16-.98-2.95-1.13v-.38h8.14v.38c-1.43.15-2.91.68-4.53,2.15l-4.84,4.46,10.35,12.65v.15h-5.15l-8.6-10.57,6.51-6.08Z"/>
    <path class="st0" d="M204.37,36.07c-5.46,0-8.95-4.23-8.95-9.74,0-6.12,4.11-10.8,9.22-10.8,4.84,0,7.44,3.32,7.44,7.59v.3h-12.79v.6c0,5.67,2.79,9.03,6.9,9.03,2.6,0,4.65-1.13,6.01-3.17l.15.08c-.89,3.51-3.88,6.12-7.98,6.12ZM199.34,22.78h8.76c0-3.7-1.12-6.65-3.95-6.65s-4.46,3.02-4.81,6.65Z"/>
    <path class="st0" d="M225.89,15.53c.7,0,1.28.23,1.55.49v3.55h-.62c-2.4,0-4.57.26-6.24,2.08v11.86c0,1.47.97,1.55,3.53,1.78v.42h-10.54v-.42c1.94-.11,2.67-.26,2.67-1.74v-14.46l-2.56-1.44v-.15l6.9-1.96h.16l-.16,5.78c1.59-3.66,2.98-5.78,5.31-5.78Z"/>
    <path class="st0" d="M241.74,22.1c0,7.18,3.06,13.44,8.8,13.44,3.84,0,7.25-2.98,8.49-8.5h.35l-.54,6.87c-2.29,1.36-5.04,2.15-8.6,2.15-8.02,0-13.37-5.36-13.37-13.07,0-8.69,6.2-14.2,13.72-14.2,3.02,0,5.77.87,7.87,2.19l.04,5.82h-.35c-.85-4.42-3.92-7.48-7.52-7.48-5.89,0-8.88,6.19-8.88,12.76Z"/>
    <path class="st0" d="M272.25,9.18c7.01,0,10.62,3.4,10.62,7.36,0,4.57-3.76,7.7-10.66,7.7h-2.91v8.2c0,2.23.89,2.53,4.73,2.83v.42h-12.56v-.42c2.79-.26,3.25-.57,3.25-2.64V12.24c0-2.08-.46-2.38-3.25-2.64v-.42h10.77ZM269.3,23.53h1.98c4.61,0,6.82-2.57,6.82-6.84,0-3.85-2.25-6.84-6.82-6.84h-1.98v13.67Z"/>
    <path class="st0" d="M289.07,35.69h-7.98v-.42c1.47-.15,2.6-.38,3.1-1.81l8.45-21.9-1.05-2.64h4.77l9.81,24.93c.43,1.02,1.47,1.36,2.75,1.44v.42h-11.08v-.42c2.36-.08,3.25-.57,3.25-1.62,0-.42-.15-.94-.39-1.51l-2.71-6.87h-9.69l-2.6,6.84c-.19.57-.31,1.06-.31,1.44,0,1.17,1.12,1.66,3.68,1.74v.42ZM293.06,12.62l-4.53,11.97h9.22l-4.69-11.97Z"/>
  </g>
  <g>
    <path class="st0" d="M19.95,33.66c-5.38,0-10.62,0-15.86,0,1.97-1.97,3.92-3.92,5.84-5.84-.73-.74-1.37-1.39-2.03-2.06-.76.77-1.57,1.58-2.38,2.38-1.73,1.73-3.46,3.46-5.19,5.18-.23.23-.33.46-.32.78.02.77,0,1.53,0,2.34,7.96,0,15.9,0,23.89,0,0-.9.02-1.79-.01-2.68,0-.15-.19-.31-.32-.44-6.36-6.37-12.73-12.73-19.09-19.09-.16-.16-.37-.28-.54-.41,2.75-2.74,5.4-5.38,8.03-8,1.26,1.27,2.57,2.59,3.92,3.94-.61.59-1.28,1.22-1.94,1.87,2.05,2.04,4.02,4,5.96,5.94-.71.7-1.38,1.35-2.04,2-1.9-1.9-3.87-3.87-5.8-5.8-.69.69-1.34,1.33-1.96,1.95,2.57,2.57,5.21,5.21,7.81,7.81,1.93-1.93,3.89-3.9,5.87-5.88-1.91-1.91-3.9-3.88-5.91-5.89.73-.7,1.39-1.34,2.18-2.11-.23-.15-.41-.21-.53-.33-1.76-1.75-3.5-3.51-5.26-5.25-.26-.26-.35-.51-.35-.86.02-1.1,0-2.19,0-3.21C9.36,4.58,4.76,9.18.12,13.83c6.5,6.5,13.13,13.12,19.83,19.82Z"/>
    <path class="st0" d="M23.88,42.08c0-.92,0-1.81,0-2.73-7.95,0-15.87,0-23.83,0,0,.89,0,1.79,0,2.73,7.92,0,15.86,0,23.83,0Z"/>
  </g>
</svg>