<?xml version="1.0" encoding="UTF-8"?>
<svg id="Layer_1" xmlns="http://www.w3.org/2000/svg" version="1.1" viewBox="0 0 384.4 187.86">
  <!-- Generator: Adobe Illustrator 29.6.1, SVG Export Plug-In . SVG Version: 2.1.1 Build 9)  -->
  <defs>
    <style>
      .st0 {
        fill: #fff;
      }
    </style>
  </defs>
  <g>
    <path class="st0" d="M6.04,156.9c0,9.68,19.65,6.04,19.65,19.46,0,6.95-6.26,11.5-13.61,11.5-4.94,0-9.27-1.5-11.69-3.48l-.38-9.41h.55c1.32,6.84,5.71,12.08,11.69,12.08,4.88,0,8.01-3.05,8.01-7.38,0-11.6-19.48-7-19.48-19.78,0-6.1,5.21-10.64,12.62-10.64,3.95,0,7.35,1.23,10.32,3.1l.05,8.02h-.55c-1.15-6.26-4.94-10.37-9.93-10.37-4.72,0-7.24,3.15-7.24,6.9Z"/>
    <path class="st0" d="M49.55,167.96c0-3.9-1.48-5.61-4.83-5.61-2.36,0-4.83.91-6.69,2.25v19.68c0,2.09,1.04,2.3,3.79,2.46v.59h-13.72v-.59c2.74-.16,3.79-.37,3.79-2.46v-33.79l-3.62-2.03v-.21l9.55-2.78h.22v18.71c2.14-2.46,5.76-5.4,10.1-5.4,5.05,0,7.57,2.99,7.57,8.61v16.9c0,2.09,1.04,2.3,3.79,2.46v.59h-13.72v-.59c2.74-.16,3.79-.37,3.79-2.46v-16.31Z"/>
    <path class="st0" d="M88.08,172.62c0,9.2-5.98,15.24-13.61,15.24s-13.33-5.93-13.33-13.9c0-9.14,6.04-15.18,13.61-15.18,7.96,0,13.33,5.93,13.33,13.85ZM81.6,174.27c0-7.7-2.25-14.76-7.13-14.76-4.39,0-6.8,5.03-6.8,12.83s2.25,14.76,7.08,14.76c4.44,0,6.86-5.08,6.86-12.83Z"/>
    <path class="st0" d="M104.04,187.86c-7.74,0-12.68-5.99-12.68-13.79,0-8.66,5.82-15.29,13.06-15.29,6.86,0,10.54,4.71,10.54,10.75v.43h-18.11v.86c0,8.02,3.95,12.78,9.77,12.78,3.68,0,6.59-1.6,8.51-4.49l.22.11c-1.26,4.97-5.49,8.66-11.3,8.66ZM96.91,169.03h12.4c0-5.24-1.59-9.41-5.6-9.41s-6.31,4.28-6.8,9.41Z"/>
    <path class="st0" d="M164.68,186.73v.59h-13.72v-.59c2.74-.16,3.79-.37,3.79-2.46v-16.31c0-3.9-1.43-5.61-4.56-5.61-2.2,0-4.56.91-6.26,2.25v19.68c0,2.09.99,2.3,3.73,2.46v.59h-13.61v-.59c2.74-.16,3.73-.37,3.73-2.46v-16.31c0-3.9-1.37-5.61-4.55-5.61-2.2,0-4.5.91-6.26,2.25v19.68c0,2.09,1.04,2.3,3.79,2.46v.59h-13.72v-.59c2.74-.16,3.79-.37,3.79-2.46v-20.48l-3.62-2.03v-.21l9.77-2.78h.22l-.22,5.4c2.03-2.46,5.49-5.4,9.66-5.4,3.9,0,6.48,1.87,7.24,5.45,2.03-2.46,5.54-5.45,9.66-5.45,4.94,0,7.3,2.99,7.3,8.61v16.9c0,2.09,1.1,2.3,3.84,2.46Z"/>
    <path class="st0" d="M188.33,181.97c0,1.98.93,2.83,2.52,2.83.77,0,1.48-.16,2.09-.48l.11.21c-1.37,2.03-3.46,3.21-5.76,3.21-2.8,0-4.66-1.82-5.05-4.6-1.81,2.19-4.83,4.6-8.62,4.6-4.06,0-7.19-2.67-7.19-6.63s3.4-6.31,7.96-7.86l7.79-2.67v-4.71c0-3.64-1.26-6.31-4.56-6.31-2.85,0-4.17,2.25-4.17,5.29,0,1.07.11,2.25.49,3.26l-3.68.48c-1.26-.32-2.31-1.6-2.31-3.21,0-4.06,4.94-6.63,10.48-6.63,6.48,0,9.88,2.57,9.88,8.45v14.76ZM182.19,182.67v-11.39l-5.65,2.3c-2.63,1.07-4.28,2.73-4.28,5.77s1.92,5.29,4.94,5.29c1.7,0,3.46-.48,4.99-1.98Z"/>
    <path class="st0" d="M203.42,184.27c0,2.09,1.04,2.3,3.79,2.46v.59h-13.72v-.59c2.74-.16,3.79-.37,3.79-2.46v-33.79l-3.62-2.03v-.21l9.55-2.78h.22v38.82ZM213.3,163.74c.82-.86,1.54-1.5,1.54-2.3,0-1.07-1.65-1.39-4.17-1.6v-.53h11.52v.53c-2.03.21-4.12.96-6.42,3.05l-6.86,6.31,14.65,17.91v.21h-7.3l-12.18-14.97,9.22-8.61Z"/>
    <path class="st0" d="M236.4,187.86c-7.74,0-12.68-5.99-12.68-13.79,0-8.66,5.82-15.29,13.06-15.29,6.86,0,10.54,4.71,10.54,10.75v.43h-18.11v.86c0,8.02,3.95,12.78,9.77,12.78,3.68,0,6.59-1.6,8.51-4.49l.22.11c-1.26,4.97-5.49,8.66-11.3,8.66ZM229.27,169.03h12.4c0-5.24-1.59-9.41-5.6-9.41s-6.31,4.28-6.81,9.41Z"/>
    <path class="st0" d="M266.86,158.77c.99,0,1.81.32,2.2.7v5.03h-.88c-3.4,0-6.48.37-8.84,2.94v16.79c0,2.09,1.37,2.19,4.99,2.51v.59h-14.93v-.59c2.74-.16,3.79-.37,3.79-2.46v-20.48l-3.62-2.03v-.21l9.77-2.78h.22l-.22,8.18c2.25-5.19,4.22-8.18,7.52-8.18Z"/>
    <path class="st0" d="M289.3,168.07c0,10.16,4.34,19.03,12.46,19.03,5.43,0,10.26-4.22,12.02-12.03h.49l-.77,9.73c-3.24,1.92-7.13,3.05-12.18,3.05-11.36,0-18.93-7.59-18.93-18.5,0-12.3,8.78-20.1,19.43-20.1,4.28,0,8.18,1.23,11.14,3.1l.05,8.23h-.49c-1.21-6.26-5.54-10.59-10.65-10.59-8.34,0-12.57,8.77-12.57,18.07Z"/>
    <path class="st0" d="M332.49,149.79c9.93,0,15.04,4.81,15.04,10.43,0,6.47-5.32,10.91-15.09,10.91h-4.12v11.6c0,3.15,1.26,3.58,6.69,4.01v.59h-17.78v-.59c3.95-.37,4.61-.8,4.61-3.74v-28.87c0-2.94-.66-3.37-4.61-3.74v-.59h15.26ZM328.32,170.1h2.8c6.53,0,9.66-3.64,9.66-9.68,0-5.45-3.18-9.68-9.66-9.68h-2.8v19.36Z"/>
    <path class="st0" d="M356.31,187.32h-11.31v-.59c2.09-.21,3.68-.53,4.39-2.57l11.96-31.01-1.48-3.74h6.75l13.88,35.29c.6,1.44,2.09,1.92,3.9,2.03v.59h-15.7v-.59c3.35-.11,4.61-.8,4.61-2.3,0-.59-.22-1.34-.55-2.14l-3.84-9.73h-13.72l-3.68,9.68c-.27.8-.44,1.5-.44,2.03,0,1.66,1.59,2.35,5.21,2.46v.59ZM361.96,154.65l-6.42,16.95h13.06l-6.64-16.95Z"/>
  </g>
  <g>
    <path class="st0" d="M216.51,105.8c-16.91,0-33.39,0-49.86,0,6.19-6.19,12.34-12.33,18.37-18.35-2.29-2.32-4.31-4.37-6.39-6.48-2.4,2.41-4.94,4.95-7.48,7.49-5.44,5.44-10.86,10.88-16.33,16.29-.72.71-1.04,1.44-1.01,2.46.07,2.41.02,4.82.02,7.34,25.03,0,49.98,0,75.09,0,0-2.84.05-5.64-.05-8.43-.02-.47-.59-.97-.99-1.38-20-20.01-40-40.01-60.02-60.01-.52-.52-1.17-.89-1.69-1.27,8.65-8.62,16.98-16.92,25.24-25.16,3.97,4,8.09,8.14,12.32,12.4-1.93,1.85-4.01,3.85-6.11,5.87,6.44,6.4,12.64,12.58,18.75,18.66-2.24,2.21-4.32,4.26-6.4,6.3-5.97-5.98-12.16-12.17-18.22-18.24-2.17,2.16-4.21,4.19-6.16,6.13,8.08,8.08,16.37,16.36,24.56,24.55,6.06-6.07,12.24-12.27,18.44-18.48-6.02-6-12.25-12.21-18.58-18.52,2.29-2.21,4.36-4.22,6.85-6.62-.74-.46-1.28-.67-1.66-1.05-5.52-5.49-11.01-11.02-16.55-16.49-.81-.8-1.11-1.6-1.09-2.71.06-3.45.02-6.9.02-10.1-14.37,14.39-28.82,28.87-43.41,43.48,20.45,20.45,41.26,41.26,62.32,62.31Z"/>
    <path class="st0" d="M228.87,132.29c0-2.9,0-5.7,0-8.58-24.98,0-49.89,0-74.92,0,0,2.8,0,5.63,0,8.58,24.9,0,49.85,0,74.92,0Z"/>
  </g>
</svg>