<svg width="340" height="52" viewBox="0 0 340 52" fill="none" xmlns="http://www.w3.org/2000/svg">
<path d="M24.2046 40.8416C17.6769 40.8416 11.3152 40.8416 4.95732 40.8416C7.34682 38.4521 9.72089 36.0819 12.0486 33.758C11.1646 32.8624 10.3849 32.0711 9.58192 31.2565C8.65545 32.1869 7.67494 33.1674 6.69444 34.1479C4.59445 36.2479 2.5022 38.3478 0.390633 40.4363C0.112694 40.7103 -0.0108378 40.9921 0.000742947 41.3859C0.0277648 42.3162 0.00846512 43.2465 0.00846512 44.2193C9.6707 44.2193 19.3021 44.2193 28.9952 44.2193C28.9952 43.123 29.0145 42.0421 28.9759 40.9651C28.9682 40.7837 28.7481 40.5907 28.5937 40.4324C20.8732 32.708 13.1527 24.9875 5.42441 17.267C5.22368 17.0662 4.97276 16.9234 4.77203 16.7767C8.11115 13.4492 11.3268 10.2451 14.5153 7.06428C16.0479 8.60839 17.6383 10.2065 19.2712 11.851C18.5261 12.5652 17.7232 13.3372 16.9126 14.117C19.3986 16.5875 21.7919 18.9732 24.1505 21.3202C23.2858 22.1733 22.4829 22.9647 21.68 23.7522C19.3754 21.4438 16.9859 19.0543 14.6466 16.7111C13.8089 17.5449 13.0214 18.3285 12.2687 19.0774C15.3877 22.1965 18.5879 25.3928 21.7495 28.5544C24.0888 26.2112 26.4744 23.8178 28.8678 21.4206C26.5439 19.1044 24.139 16.7072 21.6954 14.2714C22.5794 13.4183 23.3785 12.6424 24.3397 11.7159C24.054 11.5383 23.8456 11.4573 23.6989 11.3106C21.568 9.19129 19.4487 7.05656 17.3102 4.945C16.9975 4.63618 16.8817 4.32735 16.8894 3.89887C16.9126 2.56707 16.8971 1.23528 16.8971 0C11.3499 5.55492 5.77184 11.1446 0.139713 16.7844C8.03395 24.6787 16.0672 32.7119 24.1969 40.8377L24.2046 40.8416Z" fill="white"/>
<path d="M28.9759 51.0674C28.9759 49.9479 28.9759 48.867 28.9759 47.7552C19.333 47.7552 9.71705 47.7552 0.0548096 47.7552C0.0548096 48.8361 0.0548096 49.9286 0.0548096 51.0674C9.66686 51.0674 19.2982 51.0674 28.9759 51.0674Z" fill="white"/>
<path d="M57.4544 40.9469C53.6528 40.9469 50.3884 39.7899 48.5702 38.261L48.281 31.195H49.7272C50.6776 36.3602 53.2809 39.4593 57.4544 39.4593C61.0907 39.4593 63.2807 37.3933 63.2807 34.3768C63.2807 31.1124 61.4626 29.8314 56.256 27.7653C51.752 25.9885 48.5702 24.0051 48.5702 19.1704C48.5702 14.5424 52.0826 11.1127 57.661 11.1127C61.008 11.1127 64.0245 12.0218 66.0906 13.5094V19.6663H64.727C64.0658 15.0796 61.6278 12.6003 57.661 12.6003C54.5618 12.6003 52.7024 14.5424 52.7024 17.2696C52.7024 20.3274 54.19 21.5258 58.7353 23.3026C64.3137 25.534 67.4542 27.6414 67.4542 32.5173C67.4542 37.9718 62.9088 40.9469 57.4544 40.9469ZM72.5038 37.3933V12.2284L69.9005 10.8235V10.2037L76.4707 8.1789H77.1318V22.4348C78.9913 20.3274 81.3879 18.468 84.6937 18.468C88.5366 18.468 90.4374 20.7407 90.4374 25.2447V37.3933C90.4374 38.9222 91.0985 39.2114 93.1646 39.3354V40.5337H83.0821V39.3354C85.1482 39.2114 85.8093 38.9222 85.8093 37.3933V25.3274C85.8093 22.5588 84.6937 21.3192 82.3383 21.3192C80.3962 21.3192 78.5781 22.3109 77.1318 23.4679V37.3933C77.1318 38.9222 77.7516 39.2114 79.8177 39.3354V40.5337H69.7766V39.3354C71.8427 39.2114 72.5038 38.9222 72.5038 37.3933ZM104.806 39.5833C108.194 39.5833 109.971 35.9057 109.971 30.4099C109.971 24.6249 108.318 19.8316 104.599 19.8316C101.211 19.8316 99.4755 23.5092 99.4755 29.005C99.4755 34.7487 101.128 39.5833 104.806 39.5833ZM104.599 40.9469C98.5664 40.9469 94.5582 36.6495 94.5582 30.2033C94.5582 23.1373 99.021 18.468 104.806 18.468C110.839 18.468 114.847 22.8067 114.847 29.1703C114.847 36.2776 110.384 40.9469 104.599 40.9469ZM126.908 18.468C132.197 18.468 134.966 22.0629 134.966 26.8563V27.724H121.371C121.123 34.0462 124.305 37.6412 128.478 37.6412C131.371 37.6412 133.189 36.3602 134.676 34.1288L135.213 34.4181C134.222 38.261 131.288 40.9469 126.784 40.9469C120.834 40.9469 117.197 36.3602 117.197 30.2859C117.197 23.3852 121.412 18.468 126.908 18.468ZM126.536 19.8729C123.561 19.8729 121.825 22.6828 121.495 26.4017H130.668C130.668 22.6001 129.511 19.8729 126.536 19.8729ZM164.988 37.3933V25.3274C164.988 22.6001 164.079 21.3192 161.765 21.3192C159.864 21.3192 158.335 22.3109 156.889 23.4679V37.3933C156.889 38.9222 157.468 39.2114 159.534 39.3354V40.5337H149.575V39.3354C151.641 39.2114 152.261 38.9222 152.261 37.3933V25.3274C152.261 22.6001 151.311 21.3192 148.997 21.3192C147.096 21.3192 145.567 22.3109 144.121 23.4679V37.3933C144.121 38.9222 144.741 39.2114 146.807 39.3354V40.5337H136.766V39.3354C138.832 39.2114 139.493 38.9222 139.493 37.3933V22.6414L136.89 21.1952V20.6167L143.584 18.468H144.286L144.121 22.4348C145.98 20.2861 148.088 18.468 151.435 18.468C154.41 18.468 156.063 19.7489 156.641 22.5588C158.501 20.4101 160.856 18.468 164.162 18.468C167.922 18.468 169.616 20.7407 169.616 25.1621V37.3933C169.616 38.9222 170.277 39.2114 172.344 39.3354V40.5337H162.344V39.3354C164.41 39.2114 164.988 38.9222 164.988 37.3933ZM181.789 38.137C183.235 38.137 184.309 37.4759 185.756 36.3189V28.5504L181.417 30.3273C179.475 31.0711 178.359 32.1454 178.359 34.3768C178.359 36.6081 179.475 38.137 181.789 38.137ZM190.384 24.9968V35.947C190.384 37.5999 190.714 38.4676 191.871 38.4676C192.532 38.4676 193.111 38.261 193.648 38.0131L193.896 38.7569C192.822 40.2031 191.334 40.9469 189.598 40.9469C187.45 40.9469 186.169 39.542 185.838 37.2693C184.433 38.9635 182.202 40.9056 179.309 40.9056C176.004 40.9056 173.896 38.8395 173.896 35.6577C173.896 32.1454 176.458 30.6992 179.681 29.5008L185.756 27.2695V24.129C185.756 21.5258 184.805 19.625 182.326 19.625C180.136 19.625 179.227 21.1539 179.227 23.22C179.227 23.9637 179.351 24.6662 179.557 25.534L176.83 25.9059C175.756 25.5753 175.095 24.7488 175.095 23.5092C175.095 20.2448 178.483 18.468 182.822 18.468C187.78 18.468 190.384 20.4514 190.384 24.9968ZM202.278 28.757L208.849 22.7654C209.51 22.1869 209.964 21.6911 209.964 21.1539C209.964 20.3688 209.179 20.2861 207.237 20.0795V18.8812H215.708V20.0795C214.138 20.4101 213.353 20.7407 212.402 21.6084L206.452 27.0629L216.658 39.6659V40.5337H211.617L202.278 28.757ZM197.196 37.3933V12.2284L194.593 10.8235V10.2037L201.121 8.1789H201.824V37.3933C201.824 38.9222 202.485 39.2114 204.551 39.3354V40.5337H194.469V39.3354C196.535 39.2114 197.196 38.9222 197.196 37.3933ZM227.347 18.468C232.636 18.468 235.404 22.0629 235.404 26.8563V27.724H221.81C221.562 34.0462 224.743 37.6412 228.917 37.6412C231.809 37.6412 233.628 36.3602 235.115 34.1288L235.652 34.4181C234.661 38.261 231.727 40.9469 227.223 40.9469C221.272 40.9469 217.636 36.3602 217.636 30.2859C217.636 23.3852 221.851 18.468 227.347 18.468ZM226.975 19.8729C224 19.8729 222.264 22.6828 221.934 26.4017H231.107C231.107 22.6001 229.95 19.8729 226.975 19.8729ZM244.56 25.4926V37.228C244.56 38.8808 245.51 39.1701 248.155 39.3354V40.5337H237.204V39.3354C239.271 39.2114 239.932 38.9222 239.932 37.3933V22.6414L237.328 21.1952V20.6167L244.023 18.468H244.725L244.56 24.4183C246.708 20.0795 247.783 18.468 250.179 18.468C250.965 18.468 251.543 18.7572 251.874 19.1291V22.8481H251.171C248.651 22.8481 246.791 23.0133 244.56 25.4926ZM275.961 11.1127C279.556 11.1127 282.613 12.0218 284.969 13.5507L285.01 19.8729H283.688C282.737 15.1209 280.134 12.6416 276.002 12.6416C270.01 12.6416 267.118 18.468 267.118 25.534C267.118 33.2611 270.382 39.3767 276.374 39.3767C280.506 39.3767 283.151 36.98 284.473 31.0711H285.919L285.341 38.5916C282.903 40.0792 279.927 40.9469 276.126 40.9469C267.366 40.9469 261.87 35.1619 261.87 26.691C261.87 17.187 267.944 11.1127 275.961 11.1127ZM296.565 28.8397V35.947C296.565 38.385 297.639 38.9222 301.606 39.2114V40.5337H288.218V39.294C291.193 38.9222 291.689 38.6742 291.689 36.3602V15.6994C291.689 13.3854 291.193 13.1375 288.218 12.7656V11.5259H299.912C307.473 11.5259 311.027 15.4928 311.027 20.0795C311.027 25.286 307.349 28.8397 299.953 28.8397H296.565ZM296.565 13.0135V27.2695H298.879C303.796 27.2695 305.903 24.6662 305.903 20.2035C305.903 16.1953 303.713 13.0135 298.879 13.0135H296.565ZM330.687 35.823L328.58 30.6578H317.051L315.068 35.823C314.82 36.4015 314.654 36.98 314.654 37.4346C314.654 38.7155 315.646 39.1701 318.332 39.294V40.5337H310.026V39.294C311.183 39.0874 312.051 38.8808 312.464 37.7651L321.762 14.1292L320.522 11.2367H325.729L336.555 37.7651C336.968 38.8395 337.836 39.0874 338.993 39.294V40.5337H327.464V39.294C330.067 39.2114 331.059 38.7569 331.059 37.4759C331.059 36.98 330.935 36.4429 330.687 35.823ZM322.712 16.154L317.671 29.1289H327.96L322.712 16.154Z" fill="white"/>
</svg>
